<svg width="13" height="14" viewBox="0 0 13 14" fill="none" xmlns="http://www.w3.org/2000/svg">
<path d="M6.49558 0.962402C2.9112 0.962402 -0.00442505 3.87803 -0.00442505 7.4624C-0.00442505 11.0468 2.9112 13.9624 6.49558 13.9624C10.08 13.9624 12.9956 11.0468 12.9956 7.4624C12.9956 3.87803 10.08 0.962402 6.49558 0.962402ZM10.794 3.95928C11.5675 4.90459 12.0362 6.10772 12.0471 7.41865C11.8643 7.37959 10.0284 7.00771 8.18151 7.24053C8.14245 7.14521 8.10339 7.0499 8.06276 6.95459C7.94714 6.68428 7.8237 6.41396 7.69401 6.1499C9.74558 5.31084 10.6768 4.11865 10.794 3.95928ZM6.49558 1.91865C7.90651 1.91865 9.19558 2.44834 10.1753 3.31709C10.0753 3.45928 9.23933 4.58272 7.26589 5.32334C6.35651 3.65146 5.3487 2.27959 5.19401 2.07334C5.62058 1.97021 6.05651 1.91865 6.49558 1.91865ZM4.13464 2.44678C4.28151 2.64678 5.2737 4.02334 6.19245 5.65771C3.59558 6.34678 1.30808 6.3374 1.05964 6.33428C1.42058 4.61084 2.58151 3.17959 4.13464 2.44678ZM0.944013 7.47021C0.944013 7.41396 0.945575 7.35615 0.947137 7.2999C1.18932 7.30459 3.87995 7.33896 6.65339 6.50928C6.81276 6.82021 6.96433 7.13584 7.10339 7.45146C7.02995 7.47178 6.95651 7.49365 6.88464 7.51709C4.02058 8.44521 2.49714 10.9687 2.37058 11.1827C1.48464 10.1983 0.944013 8.89678 0.944013 7.47021ZM6.49558 13.0218C5.2112 13.0218 4.02839 12.5843 3.08776 11.8499C3.18776 11.6452 4.3112 9.4749 7.44245 8.38272L7.47839 8.37021C8.25808 10.3952 8.57995 12.0937 8.66276 12.5812C7.97785 12.8739 7.24042 13.0238 6.49558 13.0218ZM9.59714 12.0733C9.54089 11.7358 9.24558 10.1108 8.51901 8.11553C10.2596 7.8374 11.7878 8.29365 11.9768 8.35303C11.73 9.89678 10.844 11.2312 9.59714 12.0733Z" fill="#333333"/>
</svg>
